<?xml version="1.0" standalone="no"?>
<!DOCTYPE svg PUBLIC "-//W3C//DTD SVG 20010904//EN"
 "http://www.w3.org/TR/2001/REC-SVG-20010904/DTD/svg10.dtd">
<svg version="1.0" xmlns="http://www.w3.org/2000/svg"
 width="260.000000pt" height="260.000000pt" viewBox="0 0 260.000000 260.000000"
 preserveAspectRatio="xMidYMid meet">
<metadata>
Created by potrace 1.11, written by Peter Selinger 2001-2013
</metadata>
<g transform="translate(0.000000,260.000000) scale(0.100000,-0.100000)"
fill="#000000" stroke="none">
<path d="M0 1300 l0 -1300 1300 0 1300 0 0 1300 0 1300 -1300 0 -1300 0 0
-1300z m1073 820 c87 -33 127 -92 127 -187 0 -70 -26 -132 -68 -161 -16 -12
-34 -22 -39 -22 -37 -1 -31 -21 48 -154 54 -91 78 -141 72 -147 -6 -6 -29 -9
-53 -7 l-42 3 -80 138 -80 137 -88 0 -89 0 -3 -137 -3 -138 -45 0 -45 0 -3
335 c-1 184 0 341 3 347 3 10 46 13 169 13 141 0 173 -3 219 -20z m375 -132
l3 -148 174 0 174 0 3 148 3 147 45 0 45 0 0 -345 0 -345 -45 0 -45 0 -3 153
-3 152 -174 0 -174 0 -3 -152 -3 -153 -45 0 -45 0 -3 335 c-1 184 0 341 3 348
3 9 19 12 47 10 l43 -3 3 -147z m-220 -1101 l-3 -274 -30 -49 c-19 -30 -49
-60 -79 -79 -46 -28 -56 -30 -145 -30 -85 0 -102 3 -148 28 -63 33 -103 88
-111 152 l-5 45 52 0 c47 0 51 -2 57 -27 19 -80 65 -113 156 -113 69 0 113 26
138 83 17 37 20 66 20 244 l0 203 -187 2 -188 3 -3 43 -3 42 241 0 241 0 -3
-273z m272 136 l5 -131 142 134 c139 131 144 134 187 134 25 0 48 -5 52 -12 5
-8 -50 -68 -154 -169 l-162 -156 171 -168 c104 -103 168 -173 165 -181 -4 -9
-22 -14 -52 -14 -46 0 -47 0 -198 148 l-151 147 -3 -148 -3 -148 -47 3 -47 3
-3 325 c-1 179 0 335 3 348 5 20 11 23 48 20 l42 -3 5 -132z"/>
<path d="M780 1935 l0 -125 115 0 c131 0 165 11 191 62 22 43 14 113 -17 144
-29 29 -102 44 -210 44 l-79 0 0 -125z"/>
</g>
</svg>
